solid OpenSCAD_Model
  facet normal -1 0 0
    outer loop
      vertex 7.5 9.201 3.8147e-007
      vertex 7.5 -8.301 3.8147e-007
      vertex 7.5 9.201 3.899
    endloop
  endfacet
  facet normal -1 0 0
    outer loop
      vertex 7.5 9.201 3.899
      vertex 7.5 12.2 8.65
      vertex 7.5 12.2 3.899
    endloop
  endfacet
  facet normal -1 -0 0
    outer loop
      vertex 7.5 12.2 8.65
      vertex 7.5 9.201 3.899
      vertex 7.5 11.05 9.8
    endloop
  endfacet
  facet normal -1 0 0
    outer loop
      vertex 7.5 -8.301 6.399
      vertex 7.5 9.201 3.899
      vertex 7.5 -8.301 3.8147e-007
    endloop
  endfacet
  facet normal -1 0 0
    outer loop
      vertex 7.5 -8.48127 9.8
      vertex 7.5 9.201 3.899
      vertex 7.5 -8.301 6.399
    endloop
  endfacet
  facet normal -1 0 0
    outer loop
      vertex 7.5 9.201 3.899
      vertex 7.5 -8.48127 9.8
      vertex 7.5 11.05 9.8
    endloop
  endfacet
  facet normal -1 0 0
    outer loop
      vertex 7.5 -10.3 7.98127
      vertex 7.5 -8.301 6.399
      vertex 7.5 -10.3 6.399
    endloop
  endfacet
  facet normal -1 0 0
    outer loop
      vertex 7.5 -8.301 6.399
      vertex 7.5 -10.3 7.98127
      vertex 7.5 -8.48127 9.8
    endloop
  endfacet
  facet normal 1 0 0
    outer loop
      vertex -7.5 9.201 3.899
      vertex -7.5 12.2 8.65
      vertex -7.5 11.05 9.8
    endloop
  endfacet
  facet normal 1 0 0
    outer loop
      vertex -7.5 12.2 8.65
      vertex -7.5 9.201 3.899
      vertex -7.5 12.2 3.899
    endloop
  endfacet
  facet normal 1 0 0
    outer loop
      vertex -7.5 -8.301 3.8147e-007
      vertex -7.5 9.201 3.899
      vertex -7.5 -8.301 6.399
    endloop
  endfacet
  facet normal 1 -0 0
    outer loop
      vertex -7.5 -8.48127 9.8
      vertex -7.5 9.201 3.899
      vertex -7.5 11.05 9.8
    endloop
  endfacet
  facet normal 1 0 0
    outer loop
      vertex -7.5 9.201 3.899
      vertex -7.5 -8.48127 9.8
      vertex -7.5 -8.301 6.399
    endloop
  endfacet
  facet normal 1 -0 0
    outer loop
      vertex -7.5 -10.3 7.98127
      vertex -7.5 -8.301 6.399
      vertex -7.5 -8.48127 9.8
    endloop
  endfacet
  facet normal 1 0 0
    outer loop
      vertex -7.5 -8.301 6.399
      vertex -7.5 -10.3 7.98127
      vertex -7.5 -10.3 6.399
    endloop
  endfacet
  facet normal 1 0 0
    outer loop
      vertex -7.5 9.201 3.899
      vertex -7.5 -8.301 3.8147e-007
      vertex -7.5 9.201 3.8147e-007
    endloop
  endfacet
  facet normal 0 -1 0
    outer loop
      vertex -7.5 12.2 3.899
      vertex 7.5 12.2 8.65
      vertex -7.5 12.2 8.65
    endloop
  endfacet
  facet normal 0 -1 -0
    outer loop
      vertex 7.5 12.2 8.65
      vertex -7.5 12.2 3.899
      vertex 7.5 12.2 3.899
    endloop
  endfacet
  facet normal 0 1 -0
    outer loop
      vertex 7.5 -10.3 6.399
      vertex -7.5 -10.3 7.98127
      vertex 7.5 -10.3 7.98127
    endloop
  endfacet
  facet normal 0 1 0
    outer loop
      vertex -7.5 -10.3 7.98127
      vertex 7.5 -10.3 6.399
      vertex -7.5 -10.3 6.399
    endloop
  endfacet
  facet normal 0 1 -0
    outer loop
      vertex 7.5 -8.301 3.8147e-007
      vertex -7.5 -8.301 6.399
      vertex 7.5 -8.301 6.399
    endloop
  endfacet
  facet normal 0 1 0
    outer loop
      vertex -7.5 -8.301 6.399
      vertex 7.5 -8.301 3.8147e-007
      vertex -7.5 -8.301 3.8147e-007
    endloop
  endfacet
  facet normal -0 0 1
    outer loop
      vertex -7.5 -8.301 6.399
      vertex 7.5 -10.3 6.399
      vertex 7.5 -8.301 6.399
    endloop
  endfacet
  facet normal 0 0 1
    outer loop
      vertex 7.5 -10.3 6.399
      vertex -7.5 -8.301 6.399
      vertex -7.5 -10.3 6.399
    endloop
  endfacet
  facet normal 0 0.707107 -0.707107
    outer loop
      vertex -7.5 -10.3 7.98127
      vertex 7.5 -8.48127 9.8
      vertex 7.5 -10.3 7.98127
    endloop
  endfacet
  facet normal 0 0.707107 -0.707107
    outer loop
      vertex 7.5 -8.48127 9.8
      vertex -7.5 -10.3 7.98127
      vertex -7.5 -8.48127 9.8
    endloop
  endfacet
  facet normal -0 0 1
    outer loop
      vertex -7.5 12.2 3.899
      vertex 7.5 9.201 3.899
      vertex 7.5 12.2 3.899
    endloop
  endfacet
  facet normal 0 0 1
    outer loop
      vertex 7.5 9.201 3.899
      vertex -7.5 12.2 3.899
      vertex -7.5 9.201 3.899
    endloop
  endfacet
  facet normal 0 -1 0
    outer loop
      vertex -7.5 9.201 3.8147e-007
      vertex 7.5 9.201 3.899
      vertex -7.5 9.201 3.899
    endloop
  endfacet
  facet normal 0 -1 -0
    outer loop
      vertex 7.5 9.201 3.899
      vertex -7.5 9.201 3.8147e-007
      vertex 7.5 9.201 3.8147e-007
    endloop
  endfacet
  facet normal 0 -0.707107 -0.707107
    outer loop
      vertex -7.5 12.2 8.65
      vertex 7.5 11.05 9.8
      vertex -7.5 11.05 9.8
    endloop
  endfacet
  facet normal 0 -0.707107 -0.707107
    outer loop
      vertex 7.5 11.05 9.8
      vertex -7.5 12.2 8.65
      vertex 7.5 12.2 8.65
    endloop
  endfacet
  facet normal 1 -0 0
    outer loop
      vertex 11.5 -14.3 9.8
      vertex 11.5 16.2 3.8147e-007
      vertex 11.5 16.2 9.8
    endloop
  endfacet
  facet normal 1 0 0
    outer loop
      vertex 11.5 16.2 3.8147e-007
      vertex 11.5 -14.3 9.8
      vertex 11.5 -14.3 3.8147e-007
    endloop
  endfacet
  facet normal 0 0 -1
    outer loop
      vertex 7.5 9.201 3.8147e-007
      vertex 11.5 -14.3 3.8147e-007
      vertex 7.5 -8.301 3.8147e-007
    endloop
  endfacet
  facet normal 0 0 -1
    outer loop
      vertex 11.5 -14.3 3.8147e-007
      vertex -7.5 -8.301 3.8147e-007
      vertex 7.5 -8.301 3.8147e-007
    endloop
  endfacet
  facet normal -0 0 -1
    outer loop
      vertex -7.5 -8.301 3.8147e-007
      vertex -11.5 -14.3 3.8147e-007
      vertex -7.5 9.201 3.8147e-007
    endloop
  endfacet
  facet normal 0 0 -1
    outer loop
      vertex -11.5 -14.3 3.8147e-007
      vertex -7.5 -8.301 3.8147e-007
      vertex 11.5 -14.3 3.8147e-007
    endloop
  endfacet
  facet normal 0 0 -1
    outer loop
      vertex 11.5 -14.3 3.8147e-007
      vertex 7.5 9.201 3.8147e-007
      vertex 11.5 16.2 3.8147e-007
    endloop
  endfacet
  facet normal 0 0 -1
    outer loop
      vertex -7.5 9.201 3.8147e-007
      vertex 11.5 16.2 3.8147e-007
      vertex 7.5 9.201 3.8147e-007
    endloop
  endfacet
  facet normal 0 0 -1
    outer loop
      vertex -7.5 9.201 3.8147e-007
      vertex -11.5 16.2 3.8147e-007
      vertex 11.5 16.2 3.8147e-007
    endloop
  endfacet
  facet normal 0 0 -1
    outer loop
      vertex -11.5 16.2 3.8147e-007
      vertex -7.5 9.201 3.8147e-007
      vertex -11.5 -14.3 3.8147e-007
    endloop
  endfacet
  facet normal -1 0 0
    outer loop
      vertex -11.5 -14.3 3.8147e-007
      vertex -11.5 16.2 9.8
      vertex -11.5 16.2 3.8147e-007
    endloop
  endfacet
  facet normal -1 -0 0
    outer loop
      vertex -11.5 16.2 9.8
      vertex -11.5 -14.3 3.8147e-007
      vertex -11.5 -14.3 9.8
    endloop
  endfacet
  facet normal 0 1 -0
    outer loop
      vertex 11.5 16.2 3.8147e-007
      vertex -11.5 16.2 9.8
      vertex 11.5 16.2 9.8
    endloop
  endfacet
  facet normal 0 1 0
    outer loop
      vertex -11.5 16.2 9.8
      vertex 11.5 16.2 3.8147e-007
      vertex -11.5 16.2 3.8147e-007
    endloop
  endfacet
  facet normal 0 0 1
    outer loop
      vertex 7.5 -8.48127 9.8
      vertex 11.5 16.2 9.8
      vertex 7.5 11.05 9.8
    endloop
  endfacet
  facet normal 0 0 1
    outer loop
      vertex 11.5 16.2 9.8
      vertex -7.5 11.05 9.8
      vertex 7.5 11.05 9.8
    endloop
  endfacet
  facet normal 0 0 1
    outer loop
      vertex -7.5 11.05 9.8
      vertex -11.5 16.2 9.8
      vertex -7.5 -8.48127 9.8
    endloop
  endfacet
  facet normal -0 0 1
    outer loop
      vertex -11.5 16.2 9.8
      vertex -7.5 11.05 9.8
      vertex 11.5 16.2 9.8
    endloop
  endfacet
  facet normal 0 0 1
    outer loop
      vertex 11.5 16.2 9.8
      vertex 7.5 -8.48127 9.8
      vertex 11.5 -14.3 9.8
    endloop
  endfacet
  facet normal -0 0 1
    outer loop
      vertex -7.5 -8.48127 9.8
      vertex 11.5 -14.3 9.8
      vertex 7.5 -8.48127 9.8
    endloop
  endfacet
  facet normal 0 0 1
    outer loop
      vertex -7.5 -8.48127 9.8
      vertex -11.5 -14.3 9.8
      vertex 11.5 -14.3 9.8
    endloop
  endfacet
  facet normal 0 0 1
    outer loop
      vertex -11.5 -14.3 9.8
      vertex -7.5 -8.48127 9.8
      vertex -11.5 16.2 9.8
    endloop
  endfacet
  facet normal 0 -1 0
    outer loop
      vertex -11.5 -14.3 3.8147e-007
      vertex 11.5 -14.3 9.8
      vertex -11.5 -14.3 9.8
    endloop
  endfacet
  facet normal 0 -1 -0
    outer loop
      vertex 11.5 -14.3 9.8
      vertex -11.5 -14.3 3.8147e-007
      vertex 11.5 -14.3 3.8147e-007
    endloop
  endfacet
endsolid OpenSCAD_Model
